<?xml version="1.0" encoding="UTF-8" standalone="no"?><!DOCTYPE svg PUBLIC "-//W3C//DTD SVG 1.1//EN" "http://www.w3.org/Graphics/SVG/1.1/DTD/svg11.dtd"><svg width="100%" height="100%" viewBox="0 0 2000 2000" version="1.1" xmlns="http://www.w3.org/2000/svg" xmlns:xlink="http://www.w3.org/1999/xlink" xml:space="preserve" xmlns:serif="http://www.serif.com/" style="fill-rule:evenodd;clip-rule:evenodd;stroke-linejoin:round;stroke-miterlimit:2;"><path d="M999.999,10.72c-108.228,384.086 -676.315,841.262 -676.315,1304.08c-0,373.519 302.796,676.317 676.315,676.317c373.519,0 676.317,-302.798 676.317,-676.317c0,-462.821 -568.085,-919.997 -676.317,-1304.08Z" style="fill:url(#_Linear1);"/><g id="Layer1"><path d="M545.501,984.681c-0.081,8.898 2.284,17.102 6.28,23.737c3.983,6.688 9.413,12.017 15.431,16.566l-23.241,16.246c-3.713,-9.449 -6.141,-19.629 -6.004,-29.621c0.073,-9.992 2.909,-19.399 7.534,-26.928Z" style="fill:#fff;fill-rule:nonzero;"/><path d="M541.492,1034.16c-2.27,-7.363 -3.628,-15.016 -3.525,-22.556c0.012,-1.641 0.098,-3.263 0.255,-4.866c-0.157,1.603 -0.243,3.225 -0.255,4.866c-0.103,7.54 1.255,15.193 3.525,22.556Zm-3.27,-27.426c0.004,-0.033 0.007,-0.067 0.01,-0.098c-0.003,0.034 -0.006,0.065 -0.01,0.098Z" style="fill:#8dcde4;fill-rule:nonzero;"/><path d="M542.386,1036.91c-0.312,-0.913 -0.61,-1.83 -0.894,-2.75c-2.27,-7.363 -3.628,-15.016 -3.525,-22.556c0.012,-1.641 0.098,-3.263 0.255,-4.866l0,-0.004c0.004,-0.033 0.007,-0.064 0.01,-0.098c0.806,-8.083 3.399,-15.612 7.217,-21.858c-1.441,4.768 -2.295,9.86 -2.333,15.144c-0.127,9.291 1.962,18.743 5.24,27.618c-2.192,2.976 -4.189,6.107 -5.97,9.37Z" style="fill:#e8e8e8;fill-rule:nonzero;"/><path d="M596.197,1107.62l-63.799,0l0,-31.48c0,-45.29 36.846,-82.134 82.138,-82.134l240.46,0l-0,63.798l-240.46,0c-10.111,0 -18.339,8.227 -18.339,18.336l0,31.48Z" style="fill:#fff;fill-rule:nonzero;"/><path d="M546.129,1099.25l-13.731,0l0,-23.106c0,-45.29 36.846,-82.134 82.138,-82.134l200.941,0l0,21.975l-187.21,0c-45.292,0 -82.138,36.848 -82.138,82.138l0,1.127Z" style="fill:#e8e8e8;fill-rule:nonzero;"/><path d="M538.378,1129.06l50.503,0c3.256,0 5.895,-2.636 5.895,-5.892l-0,-4.824l-62.293,0l0,4.824c0,3.256 2.64,5.892 5.895,5.892Z" style="fill:#fff;fill-rule:nonzero;"/><path d="M539.427,1129.06l-1.049,-0c-3.255,-0 -5.895,-2.64 -5.895,-5.896c0,3.256 2.64,5.892 5.895,5.892l1.049,0l-0,0.004Z" style="fill:#8dcde4;fill-rule:nonzero;"/><path d="M539.427,1129.06l-1.049,0c-3.255,0 -5.895,-2.636 -5.895,-5.892l0,-4.824l62.293,0l-0,3.851l-55.762,0l-0,4.825c-0,0.724 0.174,1.399 0.413,2.04Z" style="fill:#e8e8e8;fill-rule:nonzero;"/><path d="M1336.12,798.247c-144.615,-87.505 -144.298,-206.64 -144.223,-211.406c4.779,-144.12 -59.705,-208.103 -116.375,-219.103c-47.877,-9.308 -91.714,16.278 -109.027,63.664l46.602,17.037c8.766,-23.977 29.527,-36.562 52.969,-31.99c40.469,7.857 79.742,63.083 76.231,168.875c-0.174,6.169 -2.271,152.267 168.14,255.383c47.172,28.546 149.013,146.332 112.226,288.137c-4.745,18.297 -16.751,33.404 -31.643,45.048c-9.765,7.634 -15.891,19.701 -15.329,33.189c0.864,20.802 18.573,38.009 39.39,38.311c22.375,0.325 40.616,-17.716 40.616,-40.016l0,-0.151c-0.045,-11.531 1.464,-22.982 5.515,-33.777c63.972,-170.593 -44.309,-324.317 -125.092,-373.201Z" style="fill:#fff;fill-rule:nonzero;"/><path d="M1455.69,1205.84c0,-0.004 0.004,-0.007 0.004,-0.011c0,0.004 -0.004,0.007 -0.004,0.011Zm0.004,-0.094l0,-0.094l0,0.094Zm0,-0.14l0,-0.075l0,0.075Zm0,-0.113l0,-0.113l0,0.113Zm0,-0.226l0,-0.577l0,0.577Zm1.551,-19.184c0.882,-4.971 2.176,-9.867 3.964,-14.631c13.556,-36.15 19.376,-71.546 19.361,-105.342c0.015,33.796 -5.805,69.192 -19.361,105.342c-1.788,4.764 -3.082,9.66 -3.964,14.631Zm-381.726,-818.341c-0.056,-0.011 -0.117,-0.023 -0.173,-0.034c0.06,0.012 0.113,0.022 0.173,0.034Z" style="fill:#fff;fill-rule:nonzero;"/><path d="M1451.27,1221.23c0.702,-2.939 1.079,-5.998 1.079,-9.151l-0,-0.151c-0.042,-11.531 1.463,-22.982 5.514,-33.777c63.972,-170.593 -44.308,-324.317 -125.091,-373.201c-104.878,-63.459 -133.53,-143.559 -141.326,-184.605c1.414,-0.987 2.764,-2.063 4.039,-3.22c8.74,41.965 38.644,119.414 140.636,181.126c63.662,38.526 144.404,142.163 144.453,267.859c0.015,33.796 -5.805,69.192 -19.361,105.342c-1.788,4.764 -3.082,9.66 -3.964,14.631c-1.083,6.114 -1.551,12.349 -1.551,18.607l0,1.139c0,0.004 -0.004,0.007 -0.004,0.011c-0.045,4.176 -0.743,8.193 -1.987,11.961c0.109,-0.34 0.215,-0.679 0.32,-1.026c-0.826,1.546 -1.746,3.036 -2.757,4.455Zm-259.47,-666.361c-1.226,-0.875 -2.508,-1.683 -3.832,-2.418c-7.536,-115.37 -64.824,-168.117 -115.794,-178.012c-6.544,-1.271 -13.009,-1.89 -19.339,-1.89c-25.241,-0 -48.356,9.837 -65.737,27.368c-0.977,0.025 -1.946,0.085 -2.904,0.178c17.879,-21.824 43.584,-34.246 71.964,-34.246c6.284,-0 12.704,0.609 19.192,1.859c0.056,0.011 0.117,0.023 0.173,0.034c52.29,10.15 111.234,65.422 116.277,187.127Z" style="fill:#9b9b9b;fill-rule:nonzero;"/><path d="M1390.41,1174.38c0.204,-0.166 0.408,-0.328 0.611,-0.486c9.898,-7.74 18.456,-17.038 24.521,-27.754c-0.09,0.208 -0.184,0.419 -0.279,0.626c-6.042,10.463 -14.525,19.531 -24.242,27.128c-0.203,0.158 -0.407,0.32 -0.611,0.486Z" style="fill:#fff;fill-rule:nonzero;"/><path d="M1379.79,1188.81c0.17,-0.712 0.359,-1.418 0.566,-2.115c-0.121,0.226 -0.241,0.456 -0.358,0.686c2.534,-5.036 6.076,-9.475 10.41,-13.006c0.204,-0.166 0.408,-0.328 0.611,-0.486c9.717,-7.597 18.2,-16.665 24.242,-27.128c-6.008,13.319 -15.872,24.661 -27.591,33.823c-3.003,2.35 -5.658,5.122 -7.88,8.226Z" style="fill:#9b9b9b;fill-rule:nonzero;"/><path d="M1420.93,1134.35c0.633,-1.807 1.244,-3.628 1.731,-5.503c-0.445,1.72 -0.954,3.41 -1.524,5.069c-0.068,0.147 -0.14,0.291 -0.207,0.434Zm-20.957,-188.301c-26.871,-52.683 -65.379,-90.719 -89.538,-105.339c-61.097,-36.968 -100.023,-79.47 -124.809,-119.06c24.786,39.59 63.712,82.092 124.809,119.06c24.159,14.62 62.667,52.656 89.538,105.339Z" style="fill:#8dcde4;fill-rule:nonzero;"/><path d="M1421.14,1133.91c0.57,-1.659 1.079,-3.349 1.524,-5.069c17.947,-69.169 2.904,-132.628 -22.688,-182.798c-26.871,-52.683 -65.379,-90.719 -89.538,-105.339c-61.097,-36.968 -100.023,-79.47 -124.809,-119.06l-0,-12.281c24.608,40.966 64.187,85.467 127.823,123.971c47.171,28.55 149.013,146.335 112.226,288.14c-1.121,4.327 -2.66,8.472 -4.538,12.436Z" style="fill:#e8e8e8;fill-rule:nonzero;"/><path d="M1150.19,640.502c-1.928,-7.309 -3.388,-14.087 -4.497,-20.205c1.434,1.002 2.935,1.912 4.497,2.723l-0,17.482Zm-7.974,-83.117c-3.648,-87.617 -39.402,-133.803 -76.144,-140.936c-3.198,-0.624 -6.344,-0.928 -9.418,-0.928c-11.599,-0 -22.157,4.338 -30.391,12.229c-0.316,-0.995 -0.675,-1.976 -1.067,-2.936c8.679,-10.685 20.855,-16.661 34.471,-16.661c3.075,-0 6.22,0.304 9.419,0.928c37.413,7.264 73.805,55.021 76.313,145.784c-1.105,0.787 -2.165,1.628 -3.183,2.52Z" style="fill:#e8e8e8;fill-rule:nonzero;"/><path d="M1415.68,1245.4c-0.2,0 -0.396,0 -0.596,-0.004c-20.817,-0.302 -38.526,-17.509 -39.39,-38.311c0.864,20.802 18.573,38.009 39.39,38.311c0.2,0.004 0.396,0.004 0.596,0.004l0.125,0l-0.125,0Zm0.14,0l0.109,0l-0.109,0Zm0.132,0l0.105,0l-0.105,0Zm0.121,0c0.124,-0.004 0.252,-0.004 0.377,-0.008c-0.125,0.004 -0.249,0.004 -0.377,0.008Zm0.392,-0.008l0.109,0l-0.109,0Zm0.128,0c0.038,-0.003 0.072,-0.003 0.106,-0.003c-0.034,-0 -0.068,-0 -0.106,0.003Zm0.125,-0.003c0.083,-0.004 0.166,-0.004 0.248,-0.008c-0.082,0.004 -0.165,0.004 -0.248,0.008Zm0.264,-0.008c0.034,-0.004 0.067,-0.004 0.105,-0.004c-0.034,0 -0.071,0 -0.105,0.004Zm0.132,-0.004c0.034,-0.003 0.06,-0.003 0.094,-0.003c-0.034,-0 -0.06,-0 -0.094,0.003Zm0.128,-0.007c0.03,-0 0.064,-0 0.094,-0.004c-0.03,0.004 -0.064,0.004 -0.094,0.004Zm0.117,-0.004c0.041,0 0.083,-0.004 0.121,-0.004c-0.038,0 -0.08,0.004 -0.121,0.004Zm0.143,-0.007c0.034,-0 0.064,-0 0.094,-0.004c-0.03,0.004 -0.06,0.004 -0.094,0.004Zm0.143,-0.004c0.023,-0.004 0.042,-0.004 0.065,-0.004c-0.023,-0 -0.042,-0 -0.065,0.004Zm0.125,-0.008c0.019,0 0.038,-0.004 0.056,-0.004c-0.018,0 -0.037,0.004 -0.056,0.004Zm0.117,-0.007l0.053,-0l-0.053,-0Zm0.302,-0.015c0.011,-0 0.018,-0.004 0.03,-0.004c-0.012,-0 -0.019,0.004 -0.03,0.004Zm0.113,-0.008c0.007,0 0.019,0 0.026,-0.004c-0.011,0.004 -0.019,0.004 -0.026,0.004Zm0.117,-0.007l0.007,-0l-0.007,-0Zm-42.729,-38.304l0,-0.038l0,0.038Zm-0.003,-0.087l-0,-0.023l-0,0.023Zm-0.004,-0.091l-0,-0.011l-0,0.011Z" style="fill:#8dcde4;fill-rule:nonzero;"/><path d="M1415.68,1245.4c-0.2,0 -0.396,0 -0.596,-0.004c-20.817,-0.302 -38.526,-17.509 -39.39,-38.311c0,-0.026 -0.004,-0.053 -0.004,-0.079l0,-0.038c0,-0.015 -0.003,-0.034 -0.003,-0.049l-0,-0.023c-0,-0.022 -0,-0.045 -0.004,-0.068l-0,-0.011c-0.245,-7.019 1.369,-13.62 4.319,-19.429c-0.543,1.083 -1.041,2.195 -1.494,3.331c0.411,-0.649 0.841,-1.283 1.286,-1.902c-0.837,3.478 -1.241,7.126 -1.086,10.901c0.864,20.802 18.573,38.01 39.39,38.312c0.2,0.003 0.396,0.003 0.592,0.003c13.443,0 25.329,-6.634 32.582,-16.803c-0.43,1.803 -0.984,3.56 -1.644,5.265c1.686,-2.701 3.066,-5.616 4.081,-8.694c-4.96,15.186 -18.732,26.384 -35.283,27.509l-0.007,-0c-0.03,-0 -0.064,0.003 -0.091,0.003c-0.007,0.004 -0.019,0.004 -0.026,0.004c-0.027,0 -0.053,0.004 -0.083,0.004c-0.012,-0 -0.019,0.004 -0.03,0.004c-0.083,0.003 -0.166,0.007 -0.249,0.015l-0.053,-0c-0.019,0.003 -0.042,0.003 -0.061,0.003c-0.018,0 -0.037,0.004 -0.056,0.004c-0.019,0 -0.042,0.004 -0.06,0.004c-0.023,-0 -0.042,-0 -0.065,0.004l-0.049,-0c-0.03,0.004 -0.06,0.004 -0.094,0.004c-0.007,-0 -0.015,0.003 -0.022,0.003c-0.038,0 -0.08,0.004 -0.121,0.004l-0.023,0c-0.03,0.004 -0.064,0.004 -0.094,0.004c-0.011,-0 -0.023,0.004 -0.034,0.004c-0.034,-0 -0.06,-0 -0.094,0.003l-0.027,0c-0.038,0 -0.071,0 -0.105,0.004l-0.016,0c-0.082,0.004 -0.165,0.004 -0.248,0.008l-0.019,-0c-0.034,-0 -0.068,-0 -0.106,0.003l-0.143,0c-0.125,0.004 -0.253,0.004 -0.377,0.008l-0.393,0Z" style="fill:#e8e8e8;fill-rule:nonzero;"/><path d="M1449.63,1226.49c0.66,-1.705 1.214,-3.462 1.644,-5.265c1.011,-1.419 1.931,-2.909 2.757,-4.455c-0.105,0.347 -0.211,0.686 -0.32,1.026c-1.015,3.078 -2.395,5.993 -4.081,8.694Z" style="fill:#008fc7;fill-rule:nonzero;"/><path d="M1378.51,1190.71c0.453,-1.136 0.951,-2.248 1.494,-3.331c0.117,-0.23 0.237,-0.46 0.358,-0.686c-0.207,0.697 -0.396,1.403 -0.566,2.115c-0.445,0.619 -0.875,1.253 -1.286,1.902Z" style="fill:#008fc7;fill-rule:nonzero;"/><path d="M1075.47,833.269l-178.17,0l0,-35.445l178.17,0c41.197,0 74.711,-33.517 74.711,-74.71l-0,-114.37l35.444,0l-0,114.37c-0,60.739 -49.416,110.155 -110.155,110.155Z" style="fill:#fff;fill-rule:nonzero;"/><path d="M1107.36,828.566c1.423,-1.215 2.663,-2.633 3.689,-4.202c40.843,-16.133 69.815,-55.998 69.815,-102.506l-0,-96.272c1.637,-0.527 3.232,-1.158 4.771,-1.882l-0,99.41c-0,49.657 -33.03,91.748 -78.275,105.452Z" style="fill:#e8e8e8;fill-rule:nonzero;"/><path d="M1103.94,795.433c-1.305,-0.709 -2.697,-1.271 -4.156,-1.667c29.3,-10.109 50.404,-37.961 50.404,-70.652l-0,-100.094c1.776,0.921 3.624,1.713 5.544,2.364l0,98.933c0,33.201 -21.771,61.418 -51.792,71.116Z" style="fill:#9b9b9b;fill-rule:nonzero;"/><path d="M1153.23,1876.83l-330.216,0l-0,-0.505c-0,-15.258 12.371,-27.629 27.629,-27.629l274.957,-0c15.261,-0 27.63,12.371 27.63,27.629l-0,0.505Z" style="fill:#fff;fill-rule:nonzero;"/><path d="M823.014,1876.33c-0,-14.869 11.749,-27 26.475,-27.603c-14.726,0.603 -26.475,12.734 -26.475,27.603Zm302.907,-27.626l-0.03,0l0.03,0Zm-0.072,0l-0.056,0l0.056,0Zm-0.083,0c-0.022,0 -0.041,-0.003 -0.064,-0.003c0.023,-0 0.042,0.003 0.064,0.003Zm-0.087,-0.003l-0.079,-0l0.079,-0Z" style="fill:#8dcde4;fill-rule:nonzero;"/><path d="M857.353,1876.83l-34.339,0l-0,-0.505c-0,-14.869 11.749,-27 26.475,-27.603c0.381,-0.015 0.765,-0.026 1.154,-0.026l275.059,-0c0.023,-0 0.042,0.003 0.064,0.003l0.155,0c10.165,0.118 18.912,5.79 23.612,14.066l-268.247,-0c-10.301,-0 -19.184,5.703 -23.933,14.065Z" style="fill:#e8e8e8;fill-rule:nonzero;"/><rect x="909.085" y="1247.21" width="158.073" height="601.488" style="fill:#fff;fill-rule:nonzero;"/><path d="M1067.16,1271.99l0,-24.782l0,24.782Z" style="fill:#8dcde4;fill-rule:nonzero;"/><path d="M937.216,1752.25l-28.131,-0l-0,-164.772l28.131,-0l-0,164.772Zm-0,-208.979l-28.131,-0l-0,-112.531l28.131,-0l-0,112.531Zm0.905,-156.738l-29.036,-0l-0,-139.32l158.073,0l0,24.782c-66.551,-0 -121.418,50.034 -129.037,114.538Z" style="fill:#e8e8e8;fill-rule:nonzero;"/><path d="M1091.61,1848.7l-206.973,-0l0,-74.432c0,-12.16 9.86,-22.02 22.021,-22.02l162.931,-0c12.161,-0 22.021,9.86 22.021,22.02l-0,74.432Z" style="fill:#fff;fill-rule:nonzero;"/><path d="M885.141,1769.56c2.153,-9.897 10.968,-17.313 21.515,-17.313c-10.547,-0 -19.362,7.416 -21.515,17.313Zm186.736,-17.196l-0.008,-0l0.008,-0Zm-0.087,-0.008l-0.004,0l0.004,0Zm-0.173,-0.015c-0.004,-0.004 -0.008,-0.004 -0.008,-0.004c0,0 0.004,0 0.008,0.004Zm-0.083,-0.007c-0.004,-0.004 -0.012,-0.004 -0.015,-0.004c0.003,-0 0.011,-0 0.015,0.004Zm-0.087,-0.008c-0.004,0 -0.008,-0.004 -0.011,-0.004c0.003,0 0.007,0.004 0.011,0.004Zm-0.177,-0.015l-0.015,0l0.015,0Zm-0.083,-0.007l-0.019,-0l0.019,-0Zm-0.091,-0.004c-0.004,-0 -0.007,-0.004 -0.011,-0.004c0.004,0 0.007,0.004 0.011,0.004Zm-0.177,-0.012c-0.004,0 -0.012,-0.003 -0.015,-0.003c0.003,-0 0.011,0.003 0.015,0.003Zm-0.083,-0.007l-0.019,-0l0.019,-0Zm-0.083,-0.004l-0.019,0l0.019,0Zm-0.185,-0.007l-0.019,-0l0.019,-0Zm-0.083,-0.004l-0.023,-0l0.023,-0Zm-0.083,-0.004l-0.023,0l0.023,0Zm-0.185,-0.007l-0.026,-0l0.026,-0Zm-0.083,-0l-0.026,-0l0.026,-0Zm-0.083,-0.004l-0.026,-0l0.026,-0Zm-0.188,-0c-0.008,-0 -0.019,-0 -0.027,-0.004c0.008,0.004 0.019,0.004 0.027,0.004Zm-0.083,-0.004l-0.027,-0l0.027,-0Zm-0.087,-0l-0.023,-0l0.023,-0Z" style="fill:#8dcde4;fill-rule:nonzero;"/><path d="M918.797,1848.7l-34.162,-0l0,-28.131l34.162,-0l0,28.131Zm0.291,-68.321l-34.453,-0l0,-6.111c0,-1.614 0.174,-3.191 0.506,-4.707c2.153,-9.897 10.968,-17.313 21.515,-17.313l163.18,-0c0.008,0.004 0.019,0.004 0.027,0.004l0.188,-0c0.019,-0 0.038,0.004 0.057,0.004l0.109,-0c0.053,0.003 0.106,0.003 0.162,0.007l0.023,0c0.019,0 0.038,0 0.06,0.004l0.023,-0c0.023,-0 0.042,-0 0.064,0.004l0.019,-0c0.057,-0 0.109,0.003 0.166,0.007l0.019,0c0.019,0 0.041,0.004 0.064,0.004l0.019,-0c0.022,0.004 0.045,0.004 0.068,0.004c0.003,-0 0.011,0.003 0.015,0.003c0.056,0 0.109,0.004 0.166,0.008c0.004,0 0.007,0.004 0.011,0.004c0.027,-0 0.049,-0 0.072,0.004l0.019,-0c0.022,0.003 0.045,0.003 0.068,0.007l0.015,0c0.056,0.004 0.109,0.008 0.166,0.011c0.003,0 0.007,0.004 0.011,0.004c0.022,0 0.049,0.004 0.072,0.004c0.003,-0 0.011,-0 0.015,0.004c0.026,-0 0.049,0.003 0.075,0.003c0,0 0.004,0 0.008,0.004c0.056,0.004 0.113,0.008 0.169,0.015l0.004,0c0.027,0.004 0.053,0.004 0.079,0.008l0.008,-0c0.03,0.004 0.056,0.007 0.083,0.011c6.612,0.706 12.349,4.342 15.887,9.585l-147.029,-0c-10.935,-0 -20.01,7.97 -21.73,18.418Z" style="fill:#e8e8e8;fill-rule:nonzero;"/><path d="M1094.62,1820.57l-213,-0c-10.818,-0 -19.592,-8.77 -19.592,-19.592l0,-1.003c0,-10.822 8.774,-19.595 19.592,-19.595l213,-0c10.821,-0 19.591,8.773 19.591,19.595l-0,1.003c-0,10.822 -8.77,19.592 -19.591,19.592Z" style="fill:#fff;fill-rule:nonzero;"/><path d="M862.03,1800.98l0,-1.003c0,-10.822 8.774,-19.595 19.592,-19.595l213,-0c10.821,-0 19.591,8.773 19.591,19.595c-0,-0.604 -0.125,-1.173 -0.177,-1.761c-0.068,0.769 -0.182,1.523 -0.336,2.263c-1.852,-8.883 -9.645,-15.575 -19.078,-15.575l-213,0c-9.434,0 -17.227,6.692 -19.079,15.575c-0.154,-0.74 -0.268,-1.494 -0.336,-2.263c-0.052,0.588 -0.177,1.157 -0.177,1.761l0,1.003Z" style="fill:#e8e8e8;fill-rule:nonzero;"/><path d="M1094.62,1820.57l-213,-0c-10.818,-0 -19.592,-8.77 -19.592,-19.592c0,0.604 0.125,1.17 0.177,1.758c0.068,-0.766 0.182,-1.52 0.336,-2.259c1.852,8.883 9.645,15.57 19.079,15.57l213,0c9.433,0 17.226,-6.687 19.078,-15.57c0.154,0.739 0.268,1.493 0.336,2.259c0.052,-0.588 0.177,-1.154 0.177,-1.758c-0,10.822 -8.77,19.592 -19.591,19.592Z" style="fill:#9b9b9b;fill-rule:nonzero;"/><path d="M1114.04,1802.73c-0.068,-0.766 -0.182,-1.52 -0.336,-2.259c0.154,-0.74 0.268,-1.494 0.336,-2.263c0.052,0.588 0.177,1.157 0.177,1.761l-0,1.003c-0,0.604 -0.125,1.17 -0.177,1.758Zm-251.829,0c-0.052,-0.588 -0.177,-1.154 -0.177,-1.758l0,-1.003c0,-0.604 0.125,-1.173 0.177,-1.761c0.068,0.769 0.182,1.523 0.336,2.263c-0.154,0.739 -0.268,1.493 -0.336,2.259Z" style="fill:#049ed2;fill-rule:nonzero;"/><path d="M1069.26,1247.21l-162.275,0c-6.884,0 -12.47,-5.582 -12.47,-12.47l-0,-401.471l187.215,0l0,401.471c0,6.888 -5.582,12.47 -12.47,12.47Z" style="fill:#fff;fill-rule:nonzero;"/><path d="M916.617,1247.21l-9.633,0c-6.884,0 -12.47,-5.582 -12.47,-12.47l-0,-401.471l187.215,0l0,20.595c-91.19,-0 -165.112,73.922 -165.112,165.108l0,228.238Z" style="fill:#e8e8e8;fill-rule:nonzero;"/><path d="M1070.37,1430.74l-164.501,-0c-4.145,-0 -7.502,-3.357 -7.502,-7.503l-0,-29.198c-0,-4.146 3.357,-7.506 7.502,-7.506l164.501,-0c4.145,-0 7.506,3.36 7.506,7.506l-0,29.198c-0,4.146 -3.361,7.503 -7.506,7.503Z" style="fill:#fff;fill-rule:nonzero;"/><path d="M1077.88,1401.07c-0,-4.142 -3.361,-7.503 -7.506,-7.503l-164.501,0c-4.145,0 -7.502,3.361 -7.502,7.503l-0,-7.031c-0,-4.146 3.357,-7.506 7.502,-7.506l164.501,-0c4.145,-0 7.506,3.36 7.506,7.506l-0,7.031Z" style="fill:#e8e8e8;fill-rule:nonzero;"/><path d="M1070.37,1430.74l-3.214,-0l3.214,-0c4.145,-0 7.506,-3.357 7.506,-7.503l-0,-7.031l-0,7.031c-0,4.146 -3.361,7.503 -7.506,7.503Zm-161.287,-0l-3.214,-0c-4.145,-0 -7.502,-3.357 -7.502,-7.503c-0,4.146 3.357,7.503 7.502,7.503l3.214,-0Z" style="fill:#fff;fill-rule:nonzero;"/><path d="M1070.37,1430.74l-164.501,-0c-4.145,-0 -7.502,-3.357 -7.502,-7.503l-0,-7.031c-0,4.142 3.357,7.503 7.502,7.503l164.501,-0c4.145,-0 7.506,-3.361 7.506,-7.503l-0,7.031c-0,4.146 -3.361,7.503 -7.506,7.503Z" style="fill:#9b9b9b;fill-rule:nonzero;"/><path d="M1070.37,1587.48l-164.501,-0c-4.145,-0 -7.502,-3.361 -7.502,-7.506l-0,-29.199c-0,-4.145 3.357,-7.502 7.502,-7.502l164.501,-0c4.145,-0 7.506,3.357 7.506,7.502l-0,29.199c-0,4.145 -3.361,7.506 -7.506,7.506Z" style="fill:#fff;fill-rule:nonzero;"/><path d="M1073.76,1544.08c-1.015,-0.517 -2.169,-0.807 -3.387,-0.807c1.218,-0 2.372,0.29 3.387,0.807Zm-171.252,-0.015c1.014,-0.509 2.153,-0.792 3.364,-0.792c-1.211,-0 -2.35,0.287 -3.364,0.792Z" style="fill:#8dcde4;fill-rule:nonzero;"/><path d="M1077.88,1557.81c-0,-4.146 -3.361,-7.506 -7.506,-7.506l-164.501,-0c-4.145,-0 -7.502,3.36 -7.502,7.506l-0,-7.035c-0,-2.934 1.682,-5.477 4.138,-6.71c1.014,-0.505 2.153,-0.792 3.364,-0.792l164.501,-0c1.218,-0 2.372,0.29 3.387,0.807c2.444,1.237 4.119,3.772 4.119,6.695l-0,7.035Z" style="fill:#e8e8e8;fill-rule:nonzero;"/><path d="M1070.37,1587.48l-3.214,-0l3.214,-0c4.145,-0 7.506,-3.361 7.506,-7.506l-0,-7.031l-0,7.034c-0,4.142 -3.361,7.503 -7.506,7.503Zm-161.287,-0l-3.214,-0c-4.145,-0 -7.502,-3.361 -7.502,-7.503l-0,-0.003c-0,4.145 3.357,7.506 7.502,7.506l3.214,-0Z" style="fill:#fff;fill-rule:nonzero;"/><path d="M1070.37,1587.48l-164.501,-0c-4.145,-0 -7.502,-3.361 -7.502,-7.506l-0,-7.031c-0,4.145 3.357,7.502 7.502,7.502l164.501,0c4.145,0 7.506,-3.357 7.506,-7.502l-0,7.031c-0,4.145 -3.361,7.506 -7.506,7.506Z" style="fill:#9b9b9b;fill-rule:nonzero;"/><rect x="966.018" y="772.481" width="44.207" height="20.598" style="fill:#d3d3d3;fill-rule:nonzero;"/><path d="M1010.23,776.751l-0,-4.27l-0,4.27Z" style="fill:#bfbfcc;fill-rule:nonzero;"/><path d="M971.167,793.079l-5.149,0l0,-20.598l44.207,0l-0,4.27l-22.73,-0c-9.018,-0 -16.328,7.31 -16.328,16.328Z" style="fill:#424242;fill-rule:nonzero;"/><path d="M1028.14,439.922c-0,22.103 -17.917,40.021 -40.02,40.021c-22.104,0 -40.02,-17.918 -40.02,-40.021c-0,-22.103 17.916,-40.022 40.02,-40.022c22.103,0 40.02,17.919 40.02,40.022Z" style="fill:#fff;fill-rule:nonzero;"/><path d="M948.12,441.245l0,-0.018l0,0.018Zm0,-0.101c0,-0.014 -0.003,-0.028 -0.003,-0.042c-0,0.014 0.003,0.028 0.003,0.042Zm-0.003,-0.114c-0,-0.018 -0.004,-0.036 -0.004,-0.053c-0,0.018 0.004,0.035 0.004,0.053Zm-0.004,-0.121l-0,-0.055l-0,0.055Zm-0.004,-0.122l0,-0.059l0,0.059Zm0,-0.122c-0.004,-0.021 -0.004,-0.041 -0.004,-0.062c0,0.02 0,0.042 0.004,0.062Zm-0.004,-0.122l0,-0.067l0,0.067Zm0,-0.124c-0.003,-0.024 -0.003,-0.045 -0.003,-0.068c-0,0.023 -0,0.045 0.003,0.068Zm-0.003,-0.124l-0,-0.074l-0,0.074Zm-0,-0.124l-0,-0.081l-0,0.081Zm-0,-0.125l-0,-0.124l-0,0.124Zm-0,-0.124l-0,-0.125l-0,0.125Zm-0,-0.169l-0,-0.08l-0,0.08Zm-0,-0.131l-0,-0.073l-0,0.073Zm-0,-0.13c-0,-0.022 -0,-0.045 0.003,-0.067c-0.003,0.023 -0.003,0.045 -0.003,0.067Zm0.003,-0.125l0,-0.066l0,0.066Zm0,-0.126c0,-0.021 0,-0.042 0.004,-0.063c-0.004,0.02 -0.004,0.043 -0.004,0.063Zm0.004,-0.125l0,-0.06l0,0.06Zm0.004,-0.126l-0,-0.055l-0,0.055Zm-0,-0.124c-0,-0.017 0.004,-0.034 0.004,-0.051c-0,0.016 -0.004,0.035 -0.004,0.051Zm0.004,-0.126c-0,-0.012 -0,-0.026 0.003,-0.038c-0.003,0.013 -0.003,0.025 -0.003,0.038Zm0.003,-0.124l0,-0.016l0,0.016Z" style="fill:#8dcde4;fill-rule:nonzero;"/><path d="M982.992,479.578c-0.747,-0.095 -1.486,-0.212 -2.222,-0.348c-0.694,-0.133 -1.384,-0.283 -2.067,-0.448c-17.14,-4.13 -29.987,-19.271 -30.583,-37.537l0,-0.101c0,-0.014 -0.003,-0.028 -0.003,-0.042l-0,-0.072c-0,-0.018 -0.004,-0.035 -0.004,-0.053l-0,-0.123c-0.004,-0.022 -0.004,-0.045 -0.004,-0.067l0,-0.122c-0.004,-0.02 -0.004,-0.042 -0.004,-0.062l0,-0.184c-0.003,-0.023 -0.003,-0.045 -0.003,-0.068l-0,-0.859c-0,-0.022 -0,-0.044 0.003,-0.067l0,-0.184c0,-0.02 0,-0.043 0.004,-0.063l0,-0.122c0,-0.022 0,-0.044 0.004,-0.066l-0,-0.124c-0,-0.016 0.004,-0.035 0.004,-0.051l-0,-0.075c-0,-0.013 -0,-0.025 0.003,-0.038l0,-0.102c0.645,-19.76 15.624,-35.864 34.868,-38.334c-17.513,4.355 -30.534,20.433 -30.534,39.656c0,19.223 13.021,35.303 30.538,39.656Z" style="fill:#e8e8e8;fill-rule:nonzero;"/><path d="M1028.1,441.821l0,-0.005l0,0.005Zm0.023,-0.574l-0,-0.02l-0,0.02Zm-0,-0.102c0.003,-0.013 0.003,-0.03 0.003,-0.043c0,0.014 0,0.03 -0.003,0.043Zm0.003,-0.117c0,-0.016 0.004,-0.033 0.004,-0.049c0,0.017 -0.004,0.031 -0.004,0.049Zm0.004,-0.119l0,-0.057l0,0.057Zm0.004,-0.12l-0,-0.061l-0,0.061Zm0.004,-0.123l-0,-0.064l-0,0.064Zm-0,-0.124l-0,-0.065l-0,0.065Zm0.004,-0.123l-0,-0.069l-0,0.069Zm-0,-0.124l-0,-0.072l-0,0.072Zm-0,-0.125l-0,-0.08l-0,0.08Zm-0,-0.124l-0,-0.124l-0,0.124Zm-0,-0.124l-0,-0.125l-0,0.125Zm-0,-0.169l-0,-0.08l-0,0.08Zm-0,-0.132l-0,-0.072l-0,0.072Zm-0,-0.128l-0,-0.068l-0,0.068Zm-0.004,-0.127l-0,-0.065l-0,0.065Zm-0,-0.125l-0,-0.063l-0,0.063Zm-0.004,-0.125l-0,-0.061l-0,0.061Zm-0.004,-0.124l0,-0.058l0,0.058Zm0,-0.127c0,-0.017 -0.004,-0.032 -0.004,-0.048c0,0.016 0.004,0.031 0.004,0.048Zm-0.004,-0.124c0,-0.013 0,-0.027 -0.003,-0.04c0.003,0.014 0.003,0.026 0.003,0.04Zm-0.003,-0.125l-0,-0.014l-0,0.014Zm-0.023,-0.592l0,-0l0,0Z" style="fill:#fff;fill-rule:nonzero;"/><path d="M993.251,479.578c17.517,-4.353 30.538,-20.433 30.538,-39.656c-0,-19.223 -13.017,-35.301 -30.534,-39.656c19.056,2.446 33.932,18.262 34.845,37.758l0,0c0.008,0.193 0.015,0.385 0.023,0.578l-0,0.099c0.003,0.013 0.003,0.027 0.003,0.04l0,0.076c0,0.016 0.004,0.031 0.004,0.048l0,0.127c0.004,0.021 0.004,0.042 0.004,0.063l-0,0.061c-0,0.021 -0,0.041 0.004,0.062l-0,0.188c-0,0.02 -0,0.039 0.004,0.059l-0,0.994c-0.004,0.018 -0.004,0.039 -0.004,0.058l-0,0.189c-0.004,0.021 -0.004,0.04 -0.004,0.062l-0,0.061c-0,0.021 -0,0.042 -0.004,0.063l0,0.127c0,0.016 -0.004,0.033 -0.004,0.049l0,0.074c0,0.013 0,0.03 -0.003,0.043l-0,0.102c-0.008,0.19 -0.015,0.38 -0.023,0.569l0,0.005c-0.845,18.007 -13.598,32.875 -30.56,36.967l-0,-0.006c-0.683,0.165 -1.373,0.315 -2.067,0.448c-0.736,0.136 -1.475,0.253 -2.222,0.348Z" style="fill:#9b9b9b;fill-rule:nonzero;"/><path d="M997.498,423.679l-18.753,-0l-9.377,16.243l9.377,16.243l18.753,-0l9.381,-16.243l-9.381,-16.243Z" style="fill:#d3d3d3;fill-rule:nonzero;"/><path d="M975.312,450.219l-5.944,-10.297l9.377,-16.243l-9.377,16.243l5.944,10.297Z" style="fill:#0770a2;fill-rule:nonzero;"/><path d="M997.498,456.164l-18.753,0l-3.433,-5.945l-5.944,-10.297l9.377,-16.243l18.753,-0l9.377,16.243l-9.377,16.242Zm-17.595,-30.476l-8.216,14.234l8.216,14.233l16.438,0l8.215,-14.233l-8.215,-14.234l-16.438,0Z" style="fill:#424242;fill-rule:nonzero;"/><path d="M1208.62,587.477c0,22.103 -17.916,40.021 -40.02,40.021c-22.103,0 -40.024,-17.918 -40.024,-40.021c0,-22.103 17.921,-40.021 40.024,-40.021c22.104,-0 40.02,17.918 40.02,40.021Z" style="fill:#fff;fill-rule:nonzero;"/><path d="M1128.6,588.678l0,-0.015l0,0.015Zm-0.004,-0.106l0,-0.035l0,0.035Zm-0.003,-0.117l-0,-0.041l-0,0.041Zm-0,-0.119l-0,-0.048l-0,0.048Zm-0.004,-0.12l-0,-0.053l-0,0.053Zm-0,-0.122c-0,-0.019 -0.004,-0.038 -0.004,-0.058c0,0.02 0.004,0.038 0.004,0.058Zm-0.004,-0.122l0,-0.061l0,0.061Zm0,-0.124l0,-0.066l0,0.066Zm0,-0.123c0,-0.025 0,-0.05 -0.004,-0.075c0.004,0.025 0.004,0.051 0.004,0.075Zm-0.004,-0.124l0,-0.118l0,0.118Zm0,-0.124l0,-0.125l0,0.125m0,-0.163c0.004,-0.029 0.004,-0.058 0.004,-0.087c0,0.03 0,0.057 -0.004,0.087Zm0.004,-0.132l0,-0.079l0,0.079Zm0,-0.129l0,-0.075l0,0.075Zm0,-0.125c0,-0.025 0.004,-0.05 0.004,-0.075c-0,0.026 -0.004,0.049 -0.004,0.075Zm0.004,-0.127l-0,-0.072l-0,0.072Zm-0,-0.125c0.004,-0.023 0.004,-0.047 0.004,-0.071c-0,0.024 -0,0.047 -0.004,0.071Zm0.004,-0.126c-0,-0.024 -0,-0.046 0.003,-0.07c-0.003,0.023 -0.003,0.047 -0.003,0.07Zm0.003,-0.124l0,-0.069l0,0.069Zm0.004,-0.126l0,-0.065l0,0.065Zm0.004,-0.123l-0,-0.061l-0,0.061Zm0.004,-0.125l-0,-0.007l-0,0.007Zm0.007,-0.236l0,-0.001c0,0.001 0,-0 0,0.001Zm0.004,-0.099c0.004,-0.007 0.004,-0.016 0.004,-0.023c-0,0.007 -0,0.015 -0.004,0.023Zm0.008,-0.123l-0,-0.019l-0,0.019Zm0.003,-0.117c0.004,-0.008 0.004,-0.016 0.004,-0.023c0,0.008 0,0.015 -0.004,0.023Zm0.008,-0.122l-0,-0.019l-0,0.019Zm0.007,-0.123l0,-0.012l0,0.012Z" style="fill:#8dcde4;fill-rule:nonzero;"/><path d="M1163.47,627.133c-19.286,-2.473 -34.29,-18.638 -34.875,-38.455l0,-0.015c0,-0.03 -0.004,-0.061 -0.004,-0.091l0,-0.035c0,-0.027 0,-0.055 -0.003,-0.082l-0,-0.167c-0.004,-0.023 -0.004,-0.049 -0.004,-0.072l-0,-0.122c-0,-0.02 -0.004,-0.038 -0.004,-0.058l0,-0.311c0,-0.024 0,-0.05 -0.004,-0.075l0,-0.336c0.004,-0.03 0.004,-0.057 0.004,-0.087l0,-0.299c0,-0.026 0.004,-0.049 0.004,-0.075l-0,-0.177c0.004,-0.024 0.004,-0.047 0.004,-0.071l-0,-0.055c-0,-0.023 -0,-0.047 0.003,-0.07l0,-0.123c0.004,-0.02 0.004,-0.037 0.004,-0.057l0,-0.065c0.004,-0.02 0.004,-0.039 0.004,-0.058l-0,-0.061c0.004,-0.022 0.004,-0.042 0.004,-0.064l-0,-0.007c0.003,-0.077 0.007,-0.153 0.007,-0.229c0,-0.001 0,0 0,-0.001c0.004,-0.033 0.004,-0.065 0.004,-0.098c0.004,-0.008 0.004,-0.016 0.004,-0.023c-0,-0.034 0.004,-0.066 0.004,-0.1l-0,-0.019c0.003,-0.033 0.003,-0.065 0.003,-0.098c0.004,-0.008 0.004,-0.015 0.004,-0.023c0,-0.034 0.004,-0.066 0.004,-0.099l-0,-0.019c0.004,-0.035 0.004,-0.07 0.007,-0.104l0,-0.012c1.075,-19.331 15.888,-34.968 34.826,-37.398c-17.516,4.354 -30.533,20.432 -30.533,39.655c-0,19.224 13.02,35.303 30.537,39.656Z" style="fill:#e8e8e8;fill-rule:nonzero;"/><path d="M1208.6,588.679l0,-0.017l0,0.017Zm0.004,-0.11l-0,-0.03l-0,0.03Zm0.004,-0.113l-0,-0.044l-0,0.044Zm0.004,-0.119l-0,-0.049l-0,0.049Zm-0,-0.12l-0,-0.055l-0,0.055Zm0.003,-0.123l0,-0.057l0,0.057Zm0,-0.122l0,-0.062l0,0.062Zm0,-0.124c0.004,-0.021 0.004,-0.044 0.004,-0.065c0,0.022 0,0.043 -0.004,0.065Zm0.004,-0.123l0,-0.075l0,0.075Zm0,-0.124l0,-0.118l0,0.118Zm0,-0.124l0,-0.125l0,0.125m0,-0.163l0,-0.087l0,0.087Zm0,-0.133c0,-0.027 0,-0.052 -0.004,-0.078c0.004,0.026 0.004,0.052 0.004,0.078Zm-0.004,-0.127l0,-0.076l0,0.076Zm0,-0.127l0,-0.074l0,0.074Zm-0.003,-0.126l-0,-0.072l-0,0.072Zm-0,-0.124c-0,-0.026 -0,-0.048 -0.004,-0.074c0.004,0.025 0.004,0.049 0.004,0.074Zm-0.004,-0.125l-0,-0.071l-0,0.071Zm-0.004,-0.127l-0,-0.067l-0,0.067Zm-0.004,-0.124l0,-0.066l0,0.066Zm-0.004,-0.125l0,-0.062l0,0.062Zm-0.003,-0.123l-0,-0.034l-0,0.034Zm-0.008,-0.215l0,-0.025l0,0.025Zm-0.004,-0.112l0,-0.034l0,0.034Zm-0.003,-0.12c-0.004,-0.012 -0.004,-0.023 -0.004,-0.035c-0,0.011 -0,0.024 0.004,0.035Zm-0.008,-0.128l0,-0.024l0,0.024Zm-0.008,-0.122l0,-0.021l0,0.021Zm-0.003,-0.123c-0.004,-0.005 -0.004,-0.009 -0.004,-0.015c-0,0.005 -0,0.01 0.004,0.015Zm-0.008,-0.122l0,-0.007l0,0.007Z" style="fill:#fff;fill-rule:nonzero;"/><path d="M1173.73,627.133c17.521,-4.353 30.541,-20.432 30.541,-39.656c0,-19.223 -13.02,-35.301 -30.537,-39.655c18.905,2.425 33.691,18.004 34.822,37.282l0,0.007c0,0.036 0.004,0.072 0.004,0.107c-0,0.006 -0,0.01 0.004,0.015c-0,0.035 0.003,0.068 0.003,0.102l0,0.021c0.004,0.033 0.004,0.065 0.008,0.098l0,0.024c0,0.031 0.004,0.062 0.004,0.093c-0,0.012 -0,0.023 0.004,0.035c-0,0.029 -0,0.057 0.003,0.086l0,0.034c0,0.03 0.004,0.058 0.004,0.087l0,0.025c0.004,0.061 0.004,0.121 0.008,0.181l-0,0.034c0.003,0.021 0.003,0.04 0.003,0.061l0,0.062c0.004,0.02 0.004,0.039 0.004,0.059l0,0.066c0.004,0.019 0.004,0.039 0.004,0.057l-0,0.067c-0,0.018 0.004,0.037 0.004,0.056l-0,0.122c0.004,0.026 0.004,0.048 0.004,0.074l-0,0.124c0.003,0.018 0.003,0.035 0.003,0.052l0,0.25c0.004,0.026 0.004,0.051 0.004,0.078l0,0.602c0,0.021 0,0.044 -0.004,0.065l0,0.246c0,0.023 -0.003,0.046 -0.003,0.068l-0,0.175c-0.004,0.026 -0.004,0.049 -0.004,0.075l-0,0.044c-0,0.028 -0.004,0.054 -0.004,0.083l-0,0.03c-0,0.031 -0,0.062 -0.004,0.093l0,0.017c-0.584,19.816 -15.589,35.982 -34.875,38.454Z" style="fill:#9b9b9b;fill-rule:nonzero;"/><path d="M1178.67,571.234l-18.758,-0l-9.377,16.243l9.377,16.243l18.758,0l9.377,-16.243l-9.377,-16.243Z" style="fill:#d3d3d3;fill-rule:nonzero;"/><path d="M1178.67,603.72l-18.758,-0l-9.377,-16.243l9.377,-16.243l18.758,0l9.377,16.243l-9.377,16.243Zm-17.596,-30.476l-8.219,14.233l8.219,14.234l16.434,-0l8.219,-14.234l-8.219,-14.233l-16.434,-0Z" style="fill:#424242;fill-rule:nonzero;"/><path d="M829.878,1072.79l64.636,0l-0,-93.773l-64.636,-0c-7.951,-0 -14.401,6.446 -14.401,14.401l0,64.971c0,7.955 6.45,14.401 14.401,14.401Z" style="fill:#fff;fill-rule:nonzero;"/><path d="M815.481,1058.6l0,-0.004l0,0.004Zm-0.004,-0.068l0,-0.004l0,0.004Zm0,-0.06l0,-0.016l0,0.016Z" style="fill:#8dcde4;fill-rule:nonzero;"/><path d="M823.606,1071.3c-4.738,-2.313 -8.05,-7.099 -8.125,-12.704l0,-0.004c-0.004,-0.023 -0.004,-0.045 -0.004,-0.064l0,-65.107c0,-7.955 6.45,-14.401 14.401,-14.401l64.636,-0l-0,9.041l-57.099,-0c-7.955,-0 -14.401,6.45 -14.401,14.401l-0,64.971c-0,1.351 0.245,2.629 0.592,3.867Z" style="fill:#e8e8e8;fill-rule:nonzero;"/><path d="M988.122,479.943c-3.252,0 -6.394,-0.43 -9.419,-1.161l0,293.699l18.837,0l-0,-293.699c-3.025,0.731 -6.167,1.161 -9.418,1.161Z" style="fill:#fff;fill-rule:nonzero;"/><path d="M985.719,772.481l-7.016,0l0,-293.699c3.025,0.731 6.167,1.161 9.419,1.161c3.251,0 6.393,-0.43 9.418,-1.161l-0,7.37l-0.026,0.005c-8.208,2.114 -11.795,12.175 -11.795,20.653l-0,265.671Z" style="fill:#e8e8e8;fill-rule:nonzero;"/><path d="M1094.62,833.269l-213,0c-10.818,0 -19.592,-8.773 -19.592,-19.591l0,-1.007c0,-10.822 8.774,-19.592 19.592,-19.592l213,0c10.821,0 19.591,8.77 19.591,19.592l-0,1.007c-0,10.818 -8.77,19.591 -19.591,19.591Z" style="fill:#fff;fill-rule:nonzero;"/><path d="M1114.21,813.674l-0,0.004m-252.183,-0l0,-1.007l0,1.003m251.945,-0.502c-1.233,-9.626 -9.392,-17.079 -19.353,-17.079l-213,0c-9.962,0 -18.121,7.453 -19.354,17.079c-0.064,-0.494 -0.11,-0.999 -0.136,-1.505c-0.019,0.34 -0.102,0.66 -0.102,1.004c0,-10.822 8.774,-19.592 19.592,-19.592l213,0c10.821,0 19.591,8.77 19.591,19.592c-0,-0.344 -0.083,-0.664 -0.102,-1.004c-0.026,0.506 -0.072,1.011 -0.136,1.505Z" style="fill:#e8e8e8;fill-rule:nonzero;"/><path d="M1094.62,833.269l-12.893,0l12.893,0c4.862,0 9.309,-1.773 12.733,-4.703c-3.424,2.93 -7.871,4.703 -12.733,4.703Zm-200.108,0l-12.892,0c-8.114,0 -15.077,-4.934 -18.053,-11.968c2.976,7.034 9.939,11.968 18.053,11.968l12.892,0Z" style="fill:#fff;fill-rule:nonzero;"/><path d="M1111.04,824.364c0.63,-0.966 1.177,-1.988 1.63,-3.063c-0.453,1.075 -1,2.097 -1.63,3.063Z" style="fill:#9b9b9b;fill-rule:nonzero;"/><path d="M1107.36,828.566c1.423,-1.215 2.663,-2.633 3.689,-4.202c-1.026,1.569 -2.266,2.987 -3.689,4.202Z" style="fill:#049ed2;fill-rule:nonzero;"/><path d="M1094.62,833.269l-213,0c-8.114,0 -15.077,-4.934 -18.053,-11.968c-0.992,-2.342 -1.539,-4.919 -1.539,-7.627c0,0.347 0.083,0.668 0.102,1.007c0.026,-0.509 0.072,-1.011 0.136,-1.509c1.233,9.626 9.392,17.083 19.354,17.083l213,0c9.961,0 18.12,-7.457 19.353,-17.083c0.064,0.498 0.11,1 0.136,1.509c0.019,-0.339 0.102,-0.66 0.102,-1.003c-0,2.704 -0.547,5.281 -1.539,7.623c-0.453,1.075 -1,2.097 -1.63,3.063c-1.026,1.569 -2.266,2.987 -3.689,4.202c-3.424,2.93 -7.871,4.703 -12.733,4.703Z" style="fill:#9b9b9b;fill-rule:nonzero;"/><path d="M1114.11,814.681c-0.026,-0.509 -0.072,-1.011 -0.136,-1.509c0.064,-0.494 0.11,-0.999 0.136,-1.505c0.019,0.34 0.102,0.66 0.102,1.004l-0,1.003c-0,0.347 -0.083,0.668 -0.102,1.007Zm-251.979,0c-0.019,-0.339 -0.102,-0.66 -0.102,-1.003l0,-1.007c0,-0.344 0.083,-0.664 0.102,-1.004c0.026,0.506 0.072,1.011 0.136,1.505c-0.064,0.498 -0.11,1 -0.136,1.509Z" style="fill:#049ed2;fill-rule:nonzero;"/><path d="M1096.86,804.078l-10.501,0l-5.25,9.094l5.25,9.095l10.501,-0l5.251,-9.095l-5.251,-9.094Z" style="fill:#d3d3d3;fill-rule:nonzero;"/><path d="M1096.86,822.267l-10.501,-0l-5.25,-9.095l5.25,-9.094l10.501,0l5.251,9.094l-5.251,9.095Zm-9.852,-17.065l-4.602,7.97l4.602,7.97l9.203,0l4.602,-7.97l-4.602,-7.97l-9.203,0Z" style="fill:#424242;fill-rule:nonzero;"/><path d="M889.886,804.078l-10.501,0l-5.251,9.094l5.251,9.095l10.501,-0l5.25,-9.095l-5.25,-9.094Z" style="fill:#d3d3d3;fill-rule:nonzero;"/><path d="M889.886,822.267l-10.501,-0l-5.251,-9.095l5.251,-9.094l10.501,0l5.25,9.094l-5.25,9.095Zm-9.852,-17.065l-4.598,7.97l4.598,7.97l9.203,0l4.602,-7.97l-4.602,-7.97l-9.203,0Z" style="fill:#424242;fill-rule:nonzero;"/><path d="M528.967,1118.34l69.325,0c5.271,0 9.545,-4.273 9.545,-9.543c0,-5.273 -4.274,-9.547 -9.545,-9.547l-69.325,0c-5.271,0 -9.545,4.274 -9.545,9.547c-0,5.27 4.274,9.543 9.545,9.543Z" style="fill:#fff;fill-rule:nonzero;"/><path d="M519.536,1107.31c0.012,-0.075 0.026,-0.151 0.039,-0.222c-0.013,0.071 -0.025,0.143 -0.036,0.215c-0.001,0.003 -0.002,0.003 -0.003,0.007Zm88.187,0c-0.001,-0.004 -0.002,-0.004 -0.002,-0.004c-0.009,-0.06 -0.019,-0.116 -0.029,-0.173c0.011,0.06 0.021,0.117 0.031,0.177Zm-87.388,-2.587c1.501,-3.218 4.677,-5.47 8.484,-5.47l0.148,0c-3.812,0 -7.103,2.237 -8.632,5.47Zm86.555,-0.076c-1.544,-3.191 -4.814,-5.394 -8.598,-5.394l0.147,0c3.779,0 6.935,2.218 8.451,5.394Z" style="fill:#8dcde4;fill-rule:nonzero;"/><path d="M607.721,1107.3c-1.508,-3.304 -4.813,-5.623 -8.693,-5.623l-70.797,-0c-3.881,-0 -7.184,2.319 -8.692,5.62c0.011,-0.072 0.023,-0.144 0.036,-0.215c0.156,-0.83 0.413,-1.626 0.76,-2.365c1.529,-3.233 4.82,-5.47 8.632,-5.47l69.325,0c3.784,0 7.054,2.203 8.598,5.394c0.37,0.777 0.643,1.615 0.802,2.486c0.01,0.057 0.02,0.113 0.029,0.173Z" style="fill:#e8e8e8;fill-rule:nonzero;"/><path d="M598.439,1118.34l-3.663,0l3.516,0c3.787,0 7.058,-2.203 8.601,-5.401c-1.514,3.183 -4.673,5.401 -8.454,5.401Zm-65.956,0l-3.664,0c-3.803,0 -6.977,-2.244 -8.481,-5.458c1.531,3.229 4.819,5.458 8.629,5.458l3.516,0Z" style="fill:#fff;fill-rule:nonzero;"/><path d="M519.575,1110.51c-0.014,-0.072 -0.027,-0.147 -0.039,-0.219c0.001,0 0.002,0 0.003,0.004c0.011,0.071 0.023,0.143 0.036,0.215Zm88.116,-0.038c0.01,-0.056 0.021,-0.117 0.03,-0.177c0,-0 0.001,-0.004 0.002,-0.004c-0.01,0.06 -0.021,0.121 -0.032,0.181Z" style="fill:#fff;fill-rule:nonzero;"/><path d="M598.292,1118.34l-69.325,0c-3.81,0 -7.098,-2.229 -8.629,-5.458c-0.348,-0.747 -0.607,-1.543 -0.763,-2.376c-0.013,-0.072 -0.025,-0.144 -0.036,-0.215c1.508,3.3 4.811,5.62 8.692,5.62l70.797,0c3.88,0 7.185,-2.32 8.693,-5.62c-0.009,0.06 -0.02,0.121 -0.03,0.177c-0.159,0.868 -0.43,1.697 -0.798,2.471c-1.543,3.198 -4.814,5.401 -8.601,5.401Z" style="fill:#9b9b9b;fill-rule:nonzero;"/><path d="M889.886,1791.38l-10.501,-0l-5.251,9.094l5.251,9.094l10.501,-0l5.25,-9.094l-5.25,-9.094Z" style="fill:#d3d3d3;fill-rule:nonzero;"/><path d="M889.886,1809.57l-10.501,-0l-5.251,-9.094l5.251,-9.094l-5.251,9.094l5.251,9.094l10.501,-0l5.25,-9.094l-5.25,9.094Z" style="fill:#0770a2;fill-rule:nonzero;"/><path d="M889.886,1809.57l-10.501,-0l-5.251,-9.094l5.251,-9.094l10.501,-0l5.25,9.094l-5.25,9.094Zm-9.852,-17.064l-4.598,7.97l4.598,7.97l9.203,-0l4.602,-7.97l-4.602,-7.97l-9.203,-0Z" style="fill:#424242;fill-rule:nonzero;"/><path d="M1096.86,1791.38l-10.501,-0l-5.25,9.094l5.25,9.094l10.501,-0l5.251,-9.094l-5.251,-9.094Z" style="fill:#d3d3d3;fill-rule:nonzero;"/><path d="M1096.86,1809.57l-10.501,-0l-5.25,-9.094l5.25,-9.094l10.501,-0l5.251,9.094l-5.251,9.094Zm-9.852,-17.064l-4.602,7.97l4.602,7.97l9.203,-0l4.602,-7.97l-4.602,-7.97l-9.203,-0Z" style="fill:#424242;fill-rule:nonzero;"/></g><defs><linearGradient id="_Linear1" x1="0" y1="0" x2="1" y2="0" gradientUnits="userSpaceOnUse" gradientTransform="matrix(-666.604,-957.442,1401.8,-975.98,1312.08,1687.84)"><stop offset="0" style="stop-color:#001847;stop-opacity:1"/><stop offset="1" style="stop-color:#0c5788;stop-opacity:1"/></linearGradient></defs></svg>