<?xml version="1.0" encoding="UTF-8" standalone="no"?>
<!DOCTYPE svg PUBLIC "-//W3C//DTD SVG 1.1//EN" "http://www.w3.org/Graphics/SVG/1.1/DTD/svg11.dtd">
<svg width="100%" height="100%" viewBox="0 0 1354 1354" version="1.1" xmlns="http://www.w3.org/2000/svg" xmlns:xlink="http://www.w3.org/1999/xlink" xml:space="preserve" xmlns:serif="http://www.serif.com/" style="fill-rule:evenodd;clip-rule:evenodd;stroke-linejoin:round;stroke-miterlimit:2;">
    <g transform="matrix(1,0,0,1,-740.631,-455.069)">
        <path d="M1417.32,455.069C1604.18,455.069 1773.35,530.814 1895.81,653.272C2018.27,775.73 2094.02,944.903 2094.02,1131.76C2094.02,1318.62 2018.27,1487.79 1895.81,1610.25C1773.35,1732.71 1604.18,1808.45 1417.32,1808.45C1230.47,1808.45 1061.29,1732.71 938.834,1610.25C816.375,1487.79 740.631,1318.62 740.631,1131.76C740.631,1122.43 740.819,1113.15 741.194,1103.91L840.321,1103.91C839.883,1113.14 839.66,1122.42 839.66,1131.76C839.66,1291.28 904.317,1435.7 1008.85,1540.23C1113.38,1644.77 1257.8,1709.42 1417.32,1709.42C1576.85,1709.42 1721.26,1644.77 1825.8,1540.23C1930.33,1435.7 1994.99,1291.28 1994.99,1131.76C1994.99,972.239 1930.33,827.821 1825.8,723.288C1721.26,618.755 1576.85,554.099 1417.32,554.099C1257.8,554.099 1113.38,618.755 1008.85,723.288C955.53,776.608 912.592,840.308 883.313,911.093L1144.43,911.093C1148.68,903.125 1153.81,895.61 1159.72,888.652C1160.3,868.848 1174.63,852.854 1192.07,852.854L1207.25,852.854L1207.25,800.13C1207.25,790.427 1215.19,782.489 1224.89,782.489L1233.68,782.489C1227.85,777.044 1223.15,770.415 1219.94,762.988C1188.43,772.95 1146.15,779.403 1129.57,779.403C1101.73,779.403 1086.83,761.196 1086.83,738.739C1086.83,716.282 1101.73,698.077 1129.57,698.077C1146.33,698.077 1189.31,704.665 1220.91,714.801C1230.3,695.253 1250.28,681.759 1273.41,681.759C1296.54,681.759 1316.52,695.253 1325.91,714.801C1357.51,704.665 1400.5,698.077 1417.25,698.077C1445.1,698.077 1459.99,716.282 1459.99,738.739C1459.99,761.196 1445.1,779.403 1417.25,779.403C1400.67,779.403 1358.39,772.95 1326.88,762.988C1323.68,770.415 1318.97,777.044 1313.15,782.489L1321.93,782.489C1331.63,782.489 1339.57,790.427 1339.57,800.13L1339.57,852.854L1354.76,852.854C1372.17,852.854 1386.48,868.798 1387.1,888.558L1387.62,888.558C1393.56,895.542 1398.73,903.089 1403,911.093L1479.75,911.093C1519.38,911.093 1555.36,927.263 1581.4,953.308C1607.45,979.354 1623.62,1015.34 1623.62,1054.96L1623.62,1113.59C1644.49,1114.15 1661.4,1131.4 1661.4,1152.41C1661.4,1173.76 1643.93,1191.23 1622.57,1191.23L1509.11,1191.23C1487.75,1191.23 1470.28,1173.76 1470.28,1152.41C1470.28,1131.9 1486.39,1114.98 1506.58,1113.67L1506.58,1054.96C1506.58,1047.64 1503.54,1040.95 1498.65,1036.06C1493.76,1031.17 1487.07,1028.14 1479.75,1028.14L1399.56,1028.14C1375.26,1068.12 1328.02,1095.25 1273.71,1095.25C1219.41,1095.25 1172.17,1068.12 1147.86,1028.14C1014.1,1028.14 881.452,1029.1 748.372,1029.1C770.559,883.339 839.248,752.858 938.834,653.272C1061.29,530.814 1230.47,455.069 1417.32,455.069Z" style="fill:rgb(0,124,220);fill-rule:nonzero;"/>
    </g>
    <g transform="matrix(1,0,0,1,-740.631,-455.069)">
        <path d="M1940.39,1272.08C1878.57,1503.1 1667.83,1673.23 1417.32,1673.23C1166.81,1673.23 956.076,1503.1 894.256,1272.08C1304.86,1090.53 1558.67,1618.68 1940.39,1272.08Z" style="fill:rgb(0,204,255);"/>
    </g>
    <g transform="matrix(1,0,0,1,-740.631,-455.069)">
        <path d="M1573.04,1207.99C1579.33,1207.71 1649.18,1341.32 1573.04,1341.32C1496.9,1341.32 1564.22,1208.38 1573.04,1207.99Z" style="fill:rgb(0,204,255);"/>
    </g>
</svg>
